<svg xmlns="http://www.w3.org/2000/svg" viewBox="0 0 220 100">
<rect width="220" height="100" rx="10" fill="#070e18"/>
<path d="M 117.8 74.1 L 118.1 75.3 L 114.8 79.3 L 107.8 79.3 L 105.5 79.7 L 101.3 80.4 L 99.6 84.1 L 96.3 86.8 L 89.8 86.4 L 88.7 88.3 L 86.2 90.0 L 84.6 87.4 L 80.9 86.0 L 77.4 86.4 L 76.5 85.9 L 74.6 83.0 L 74.1 80.8 L 75.4 77.0 L 78.1 73.0 L 82.1 70.6 L 89.5 67.6 L 94.7 60.0 L 95.0 57.8 L 94.7 53.8 L 94.0 51.9 L 96.5 51.4 L 97.9 50.3 L 98.6 48.0 L 100.1 45.0 L 100.4 42.4 L 99.0 40.0 L 98.8 38.5 L 100.2 35.7 L 100.7 30.2 L 102.1 28.4 L 103.4 26.0 L 105.4 20.9 L 105.5 21.0 L 105.1 19.2 L 105.0 17.1 L 106.0 15.2 L 107.3 13.7 L 109.0 10.4 L 110.8 10.0 L 113.1 10.8 L 116.3 15.0 L 118.5 15.5 L 119.3 15.7 L 122.4 17.7 L 122.7 19.0 L 123.9 22.4 L 130.9 21.6 L 134.0 21.4 L 138.1 23.9 L 143.7 29.9 L 145.9 33.2 L 145.6 37.7 L 143.4 40.0 L 142.1 40.7 L 139.5 41.2 L 134.9 43.5 L 133.2 45.7 L 131.2 47.9 L 130.7 49.4 L 130.3 52.9 L 129.5 58.7 L 127.1 62.0 L 125.7 64.1 L 122.8 68.7 L 120.8 70.8 L 118.0 74.1" fill="none" stroke="#ff6f00" stroke-width="2.4" stroke-linecap="round" stroke-linejoin="round" opacity="0.95"/>
<circle cx="117.8" cy="74.1" r="3.2" fill="#1cff6b"/>
<circle cx="118.0" cy="74.1" r="3.2" fill="#e53935"/>
</svg>