<svg xmlns="http://www.w3.org/2000/svg" width="220" height="100" viewBox="0 0 220 100">
<rect width="220" height="100" rx="10" fill="#070e18"/>
<path d="M 118.1 90.0 L 118.1 89.2 L 119.0 88.6 L 119.6 87.4 L 116.5 82.4 L 116.5 81.7 L 117.6 75.5 L 117.3 74.2 L 105.3 64.9 L 104.6 63.3 L 102.2 57.9 L 101.3 55.8 L 99.8 49.5 L 101.1 38.8 L 102.7 33.6 L 104.4 31.3 L 112.3 26.4 L 114.6 22.9 L 114.2 22.2 L 111.4 21.5 L 107.5 20.1 L 101.7 17.7 L 97.9 15.8 L 97.1 14.2 L 96.3 13.7 L 96.9 10.8 L 95.3 10.2 L 90.6 10.6 L 89.5 10.4 L 88.2 10.5 L 85.9 11.3 L 81.8 14.1 L 83.4 12.6 L 87.6 10.9 L 88.2 10.4 L 89.5 10.3 L 92.8 10.0 L 95.2 10.1 L 96.3 12.2 L 96.3 13.7 L 96.7 14.0 L 96.9 13.9 L 101.9 17.7 L 106.0 18.7 L 111.1 21.4 L 113.0 22.5 L 115.5 21.0 L 115.4 21.7 L 112.8 25.9 L 105.3 30.4 L 102.0 35.0 L 100.7 41.1 L 100.0 51.6 L 101.9 57.4 L 103.4 59.5 L 108.4 63.6 L 109.0 64.6 L 112.1 69.1 L 117.1 73.9 L 117.6 77.5 L 118.1 78.2 L 123.4 80.2 L 124.9 81.0 L 130.7 83.5 L 133.1 83.7 L 136.9 83.7 L 137.7 83.9 L 138.2 85.7 L 138.2 86.2 L 136.9 85.9 L 136.5 86.2" fill="none" stroke="#ff6f00" stroke-width="2.4" stroke-linecap="round" stroke-linejoin="round" opacity="0.95"/>
<circle cx="118.1" cy="90.0" r="3.2" fill="#1cff6b"/>
<circle cx="136.5" cy="86.2" r="3.2" fill="#e53935"/>
</svg>