<svg xmlns="http://www.w3.org/2000/svg" viewBox="0 0 220 100">
<rect width="220" height="100" rx="10" fill="#070e18"/>
<path d="M 92.4 11.5 L 90.9 11.9 L 89.0 14.9 L 82.4 21.1 L 77.4 23.4 L 70.9 23.5 L 67.4 26.0 L 69.3 27.0 L 80.4 29.5 L 87.5 32.2 L 90.9 32.2 L 96.2 34.3 L 101.7 33.5 L 116.0 39.9 L 119.0 38.3 L 114.2 40.5 L 108.1 41.8 L 111.4 44.3 L 115.5 45.5 L 121.3 45.4 L 122.1 48.9 L 124.4 49.6 L 127.5 50.9 L 131.6 54.6 L 126.5 54.9 L 124.8 58.3 L 120.3 55.7 L 115.8 56.7 L 110.4 57.5 L 105.2 56.0 L 108.0 60.4 L 109.4 61.5 L 112.5 63.2 L 113.4 66.9 L 121.3 70.6 L 122.7 72.4 L 126.1 75.8 L 130.5 77.0 L 135.1 80.5 L 142.0 81.2 L 138.9 82.0 L 134.2 84.8 L 132.4 90.0 L 132.8 88.7 L 137.7 85.6 L 145.4 82.0 L 150.4 80.2 L 152.4 79.4 L 152.5 76.1 L 152.6 69.6 L 152.3 63.5 L 150.6 60.4 L 146.0 56.3 L 138.5 51.3 L 138.4 48.1 L 134.1 44.1 L 129.5 38.7 L 124.9 37.6 L 119.2 37.9 L 110.8 35.0 L 110.1 32.8 L 116.5 30.0 L 114.6 28.0 L 115.0 24.3 L 118.4 22.7 L 112.1 18.5 L 112.2 12.8 L 105.8 15.1 L 101.6 15.7 L 98.5 13.8 L 95.7 10.0" fill="none" stroke="#ff6f00" stroke-width="2.4" stroke-linecap="round" stroke-linejoin="round" opacity="0.95"/>
<circle cx="92.4" cy="11.5" r="3.2" fill="#1cff6b"/>
<circle cx="95.7" cy="10.0" r="3.2" fill="#e53935"/>
</svg>