<svg xmlns="http://www.w3.org/2000/svg" viewBox="0 0 220 100">
<rect width="220" height="100" rx="10" fill="#070e18"/>
<path d="M 133.9 10.0 L 133.2 10.7 L 132.8 12.3 L 131.1 16.2 L 128.5 21.1 L 127.0 26.8 L 126.6 26.6 L 125.6 24.6 L 123.2 22.4 L 119.8 18.9 L 114.6 16.4 L 111.6 15.8 L 111.3 15.3 L 107.1 15.6 L 102.6 14.5 L 102.6 13.6 L 103.9 15.4 L 101.4 18.6 L 98.5 19.6 L 98.2 22.3 L 97.4 24.7 L 94.0 28.3 L 94.1 29.5 L 94.0 30.6 L 94.2 30.9 L 96.7 29.9 L 99.0 29.2 L 102.7 27.8 L 102.7 29.7 L 104.5 31.8 L 104.1 32.8 L 105.4 36.8 L 106.9 41.0 L 107.1 43.3 L 106.7 47.5 L 109.1 47.5 L 109.6 47.3 L 112.7 47.0 L 114.1 46.8 L 118.4 47.0 L 118.1 48.6 L 116.9 49.9 L 113.4 54.9 L 108.9 61.9 L 100.9 70.2 L 96.4 72.3 L 96.5 74.2 L 96.8 75.1 L 94.9 77.8 L 93.6 82.3 L 91.6 85.1 L 90.2 85.3 L 88.7 85.7 L 87.5 85.8 L 89.2 87.5 L 86.1 90.0 L 90.3 86.1 L 93.8 82.4 L 94.7 78.5 L 95.9 77.3 L 97.4 74.4 L 104.7 67.5 L 108.9 62.0 L 113.4 55.1 L 120.7 42.7 L 123.7 38.6 L 127.5 29.6 L 128.6 21.0 L 131.1 16.4 L 133.2 10.3 L 133.9 10.0" fill="none" stroke="#ff6f00" stroke-width="2.4" stroke-linecap="round" stroke-linejoin="round" opacity="0.95"/>
<circle cx="133.9" cy="10.0" r="3.2" fill="#1cff6b"/>
<circle cx="133.9" cy="10.0" r="3.2" fill="#e53935"/>
</svg>