<svg xmlns="http://www.w3.org/2000/svg" viewBox="0 0 220 100">
<rect width="220" height="100" rx="10" fill="#070e18"/>
<path d="M 147.8 10.0 L 151.3 12.6 L 156.5 17.7 L 152.1 25.1 L 149.9 27.3 L 149.3 29.7 L 148.0 31.9 L 144.3 39.6 L 141.3 39.0 L 139.2 35.5 L 136.8 35.4 L 133.7 36.3 L 135.1 38.6 L 136.1 42.1 L 134.9 39.8 L 135.8 43.8 L 134.5 45.1 L 134.2 48.9 L 127.0 54.6 L 121.6 54.3 L 119.5 55.4 L 117.2 52.6 L 112.7 51.3 L 106.9 49.6 L 104.4 44.9 L 103.7 42.0 L 101.2 39.8 L 98.3 40.1 L 92.5 40.9 L 89.8 42.0 L 81.4 47.6 L 78.4 55.2 L 77.2 59.6 L 71.8 64.7 L 69.3 71.1 L 63.1 75.0 L 61.0 80.7 L 63.5 81.9 L 63.5 82.8 L 61.5 81.5 L 65.1 85.2 L 64.6 85.2 L 66.2 86.4 L 66.7 86.9 L 68.8 86.6 L 72.8 90.0 L 77.0 86.2 L 80.6 81.2 L 87.4 76.9 L 91.3 71.2 L 91.7 67.4 L 97.3 58.8 L 98.5 49.8 L 101.1 43.9 L 104.2 37.9 L 106.1 34.2 L 107.2 32.5 L 110.5 30.0 L 114.2 24.4 L 113.2 20.1 L 115.4 16.4 L 117.2 13.0 L 121.0 11.6 L 127.0 11.9 L 130.3 11.3 L 140.0 14.2 L 144.1 16.5 L 150.5 24.5 L 153.2 23.9 L 157.6 17.2 L 159.0 16.7" fill="none" stroke="#ff6f00" stroke-width="2.4" stroke-linecap="round" stroke-linejoin="round" opacity="0.95"/>
<circle cx="147.8" cy="10.0" r="3.2" fill="#1cff6b"/>
<circle cx="159.0" cy="16.7" r="3.2" fill="#e53935"/>
</svg>