<svg xmlns="http://www.w3.org/2000/svg" width="220" height="100" viewBox="0 0 220 100">
<path d="M 91.0 90.0 L 88.3 87.1 L 88.7 84.0 L 87.8 78.4 L 87.3 75.8 L 89.4 75.0 L 92.4 72.4 L 94.4 70.7 L 97.1 68.4 L 99.0 65.5 L 99.4 65.5 L 99.3 67.2 L 99.9 70.6 L 101.5 69.5 L 104.9 62.7 L 107.4 58.3 L 107.9 55.6 L 111.3 52.3 L 112.9 49.8 L 114.6 43.7 L 115.9 40.7 L 119.5 35.3 L 120.3 32.3 L 123.6 27.4 L 127.8 23.8 L 131.7 16.2 L 132.7 14.2 L 131.2 13.0 L 127.4 13.4 L 125.4 13.7 L 127.0 12.8 L 124.4 10.0 L 123.8 10.4 L 122.7 11.6 L 121.8 14.6 L 120.6 15.2 L 119.7 17.1 L 119.2 17.6 L 117.0 19.0 L 117.2 20.6 L 117.5 21.2 L 118.3 21.4 L 117.3 22.9 L 116.0 23.6 L 114.1 23.9 L 114.7 24.6 L 113.5 26.2 L 111.7 26.2 L 108.5 26.5 L 106.5 26.8 L 106.6 29.9 L 106.3 30.7 L 107.2 32.3 L 107.1 34.2 L 108.3 34.4 L 108.9 34.8 L 109.3 35.2 L 108.7 36.9 L 104.6 42.0 L 100.3 48.5 L 95.2 55.0 L 94.2 58.8 L 91.4 65.4 L 89.2 66.5 L 88.3 67.5 L 87.3 73.5 L 87.8 77.5 L 87.8 79.0 L 88.1 85.2 L 89.4 89.9 L 90.5 89.0" fill="none" stroke="#ff6f00" stroke-width="2.4" stroke-linecap="round" stroke-linejoin="round" opacity="0.95"/>
<circle cx="91.0" cy="90.0" r="3.2" fill="#1cff6b"/>
<circle cx="90.5" cy="89.0" r="3.2" fill="#e53935"/>
</svg>